<mxfile host="app.diagrams.net" modified="2023-10-23T08:33:14.091Z" agent="Mozilla/5.0 (Windows NT 10.0; Win64; x64) AppleWebKit/537.36 (KHTML, like Gecko) Chrome/118.0.0.0 Safari/537.36" version="22.0.6" etag="FHzwhVFhf9FE3gYqYm9m" type="github">
  <diagram name="Page-1" id="3kHtIoUZKBWZ_jtWRq0K">
    <mxGraphModel>
      <root>
        <mxCell id="0" />
        <mxCell id="1" parent="0" />
      </root>
    </mxGraphModel>
  </diagram>
</mxfile>
